REM DIRINDEX 1\2,1\3,1\4,1\5,1\6
REM DIRNAME folder01,folder02,folder03,folder04,folder05,folder06
TITLE ""
FILE "Disc2Track25.mp3" MP3
  TRACK 01 AUDIO
    TITLE "3:cjc030_02733"
    INDEX 01 00:00:00
  TRACK 02 AUDIO
    TITLE "0:"
    INDEX 01 00:00:68
  TRACK 03 AUDIO
    TITLE "4:cjc030_02734"
    INDEX 01 00:01:03
  TRACK 04 AUDIO
    TITLE "0:"
    INDEX 01 00:05:10
  TRACK 05 AUDIO
    TITLE "5:cjc030_02735"
    INDEX 01 00:05:18
  TRACK 06 AUDIO
    TITLE "0:"
    INDEX 01 00:06:18
  TRACK 07 AUDIO
    TITLE "6:cjc030_02736"
    INDEX 01 00:06:30
  TRACK 08 AUDIO
    TITLE "0:"
    INDEX 01 00:10:00
  TRACK 09 AUDIO
    TITLE "6:cjc030_02737"
    INDEX 01 00:10:33
  TRACK 10 AUDIO
    TITLE "0:"
    INDEX 01 00:12:69
  TRACK 11 AUDIO
    TITLE "3:cjc030_02738"
    INDEX 01 00:13:41
  TRACK 12 AUDIO
    TITLE "0:"
    INDEX 01 00:14:54
  TRACK 13 AUDIO
    TITLE "4:cjc030_02739"
    INDEX 01 00:14:60
  TRACK 14 AUDIO
    TITLE "0:"
    INDEX 01 00:17:02
  TRACK 15 AUDIO
    TITLE "5:cjc030_02740"
    INDEX 01 00:17:10
  TRACK 16 AUDIO
    TITLE "0:"
    INDEX 01 00:18:21
  TRACK 17 AUDIO
    TITLE "6:cjc030_02741"
    INDEX 01 00:18:35
  TRACK 18 AUDIO
    TITLE "0:"
    INDEX 01 00:22:15
  TRACK 19 AUDIO
    TITLE "3:cjc030_02742"
    INDEX 01 00:22:66
  TRACK 20 AUDIO
    TITLE "0:"
    INDEX 01 00:23:71
  TRACK 21 AUDIO
    TITLE "4:cjc030_02743"
    INDEX 01 00:24:04
  TRACK 22 AUDIO
    TITLE "0:"
    INDEX 01 00:25:09
  TRACK 23 AUDIO
    TITLE "5:cjc030_02744"
    INDEX 01 00:25:19
  TRACK 24 AUDIO
    TITLE "0:"
    INDEX 01 00:26:24
  TRACK 25 AUDIO
    TITLE "6:cjc030_02745"
    INDEX 01 00:26:36
  TRACK 26 AUDIO
    TITLE "0:"
    INDEX 01 00:29:66
  TRACK 27 AUDIO
    TITLE "3:cjc030_02746"
    INDEX 01 00:30:40
  TRACK 28 AUDIO
    TITLE "0:"
    INDEX 01 00:31:35
  TRACK 29 AUDIO
    TITLE "4:cjc030_02747"
    INDEX 01 00:31:45
  TRACK 30 AUDIO
    TITLE "0:"
    INDEX 01 00:34:14
  TRACK 31 AUDIO
    TITLE "5:cjc030_02748"
    INDEX 01 00:34:22
  TRACK 32 AUDIO
    TITLE "0:"
    INDEX 01 00:35:21
  TRACK 33 AUDIO
    TITLE "6:cjc030_02749"
    INDEX 01 00:35:33
  TRACK 34 AUDIO
    TITLE "0:"
    INDEX 01 00:38:63
  TRACK 35 AUDIO
    TITLE "3:cjc030_02750"
    INDEX 01 00:39:37
  TRACK 36 AUDIO
    TITLE "0:"
    INDEX 01 00:40:44
  TRACK 37 AUDIO
    TITLE "4:cjc030_02751"
    INDEX 01 00:40:52
  TRACK 38 AUDIO
    TITLE "0:"
    INDEX 01 00:42:41
  TRACK 39 AUDIO
    TITLE "5:cjc030_02752"
    INDEX 01 00:42:51
  TRACK 40 AUDIO
    TITLE "0:"
    INDEX 01 00:43:54
  TRACK 41 AUDIO
    TITLE "6:cjc030_02753"
    INDEX 01 00:43:68
  TRACK 42 AUDIO
    TITLE "0:"
    INDEX 01 00:47:03
  TRACK 43 AUDIO
    TITLE "3:cjc030_02754"
    INDEX 01 00:47:52
  TRACK 44 AUDIO
    TITLE "0:"
    INDEX 01 00:49:06
  TRACK 45 AUDIO
    TITLE "4:cjc030_02755"
    INDEX 01 00:49:16
  TRACK 46 AUDIO
    TITLE "0:"
    INDEX 01 00:51:07
  TRACK 47 AUDIO
    TITLE "5:cjc030_02756"
    INDEX 01 00:51:13
  TRACK 48 AUDIO
    TITLE "0:"
    INDEX 01 00:52:43
  TRACK 49 AUDIO
    TITLE "6:cjc030_02757"
    INDEX 01 00:52:55
  TRACK 50 AUDIO
    TITLE "0:"
    INDEX 01 00:55:48
  TRACK 51 AUDIO
    TITLE "3:cjc030_02758"
    INDEX 01 00:56:20
  TRACK 52 AUDIO
    TITLE "0:"
    INDEX 01 00:58:01
  TRACK 53 AUDIO
    TITLE "4:cjc030_02759"
    INDEX 01 00:58:09
  TRACK 54 AUDIO
    TITLE "0:"
    INDEX 01 01:01:13
  TRACK 55 AUDIO
    TITLE "5:cjc030_02760"
    INDEX 01 01:01:21
  TRACK 56 AUDIO
    TITLE "0:"
    INDEX 01 01:03:04
  TRACK 57 AUDIO
    TITLE "6:cjc030_02761"
    INDEX 01 01:03:16
  TRACK 58 AUDIO
    TITLE "0:"
    INDEX 01 01:06:67
  TRACK 59 AUDIO
    TITLE "3:cjc030_02762"
    INDEX 01 01:07:41
  TRACK 60 AUDIO
    TITLE "0:"
    INDEX 01 01:08:38
  TRACK 61 AUDIO
    TITLE "4:cjc030_02763"
    INDEX 01 01:08:48
  TRACK 62 AUDIO
    TITLE "0:"
    INDEX 01 01:12:28
  TRACK 63 AUDIO
    TITLE "5:cjc030_02764"
    INDEX 01 01:12:36
  TRACK 64 AUDIO
    TITLE "0:"
    INDEX 01 01:13:36
  TRACK 65 AUDIO
    TITLE "6:cjc030_02765"
    INDEX 01 01:13:47
  TRACK 66 AUDIO
    TITLE "0:"
    INDEX 01 01:17:57
  TRACK 67 AUDIO
    TITLE "6:cjc030_02766"
    INDEX 01 01:18:19
  TRACK 68 AUDIO
    TITLE "0:"
    INDEX 01 01:21:10
